<?xml version="1.0" standalone="no"?>
<!DOCTYPE svg PUBLIC "-//W3C//DTD SVG 20010904//EN"
 "http://www.w3.org/TR/2001/REC-SVG-20010904/DTD/svg10.dtd">
<svg version="1.0" xmlns="http://www.w3.org/2000/svg"
 width="740.000000pt" height="748.000000pt" viewBox="0 0 740.000000 748.000000"
 preserveAspectRatio="xMidYMid meet">

<g transform="translate(0.000000,748.000000) scale(0.100000,-0.100000)"
fill="#000000" stroke="none">
<path d="M4003 6380 c-40 -10 -83 -26 -98 -36 -24 -16 -28 -15 -84 10 -100 44
-240 32 -374 -35 -75 -37 -95 -53 -151 -119 -81 -96 -100 -141 -93 -220 5 -56
3 -61 -24 -87 -56 -56 -74 -143 -43 -206 9 -18 34 -53 56 -79 21 -27 36 -53
32 -59 -21 -35 7 -140 41 -153 8 -3 19 -16 24 -28 12 -33 -16 -76 -69 -104
-59 -30 -70 -41 -70 -65 0 -17 3 -18 20 -9 12 6 30 8 41 5 11 -4 26 -1 34 5
20 17 34 -15 51 -123 8 -51 19 -106 25 -124 7 -23 7 -38 -1 -53 -8 -15 -9 -43
-5 -83 7 -54 13 -67 46 -101 22 -21 39 -42 39 -47 0 -15 17 -10 24 7 10 27 7
44 -19 81 -26 40 -20 73 14 73 15 0 21 -13 31 -62 17 -87 46 -155 90 -213 31
-41 86 -154 77 -161 -1 -1 -13 -7 -25 -13 -13 -7 -41 -29 -63 -48 -39 -35 -51
-74 -28 -89 6 -3 17 -20 24 -37 12 -28 11 -32 -9 -47 -19 -15 -137 -82 -209
-119 -36 -19 -54 -38 -81 -86 -16 -28 -28 -39 -41 -37 -11 2 -26 -6 -36 -19
-10 -13 -20 -21 -23 -18 -3 3 -24 75 -46 160 -22 85 -52 197 -66 249 -27 103
-96 258 -139 314 -15 19 -70 69 -123 109 -54 41 -106 84 -116 96 -11 11 -23
21 -28 21 -4 0 -7 -48 -6 -107 l2 -108 3 88 c2 48 7 87 10 87 12 0 190 -150
230 -193 80 -87 109 -161 203 -525 22 -84 47 -169 55 -188 13 -32 13 -35 -8
-49 -24 -15 -215 -75 -241 -75 -31 0 -130 217 -151 330 -4 19 -22 107 -42 195
-19 88 -39 189 -44 225 -7 58 -8 55 -4 -30 5 -95 28 -212 86 -435 48 -184 122
-325 163 -309 12 5 16 0 16 -20 0 -15 9 -45 21 -68 15 -29 19 -52 15 -77 -3
-20 0 -41 7 -49 6 -8 12 -33 14 -56 1 -22 4 -54 8 -71 5 -24 -1 -41 -30 -85
-19 -30 -40 -73 -46 -94 -6 -22 -17 -49 -24 -60 -7 -12 -16 -50 -19 -86 -5
-56 -3 -72 17 -115 14 -27 36 -62 50 -77 43 -46 117 -87 169 -94 26 -4 48 -11
48 -16 0 -5 -13 -21 -30 -35 -29 -24 -30 -28 -30 -109 0 -61 -3 -84 -12 -84
-24 0 -228 115 -320 180 -111 78 -273 232 -360 341 -184 232 -318 546 -358
839 -15 110 -15 363 0 469 80 574 441 1072 961 1326 63 30 117 61 120 68 4 6
15 31 24 54 10 23 28 52 41 64 24 23 31 53 15 63 -13 9 -142 -38 -255 -92
-796 -382 -1222 -1241 -1044 -2107 63 -311 229 -639 438 -870 312 -345 719
-561 1167 -620 845 -111 1654 347 1997 1131 184 419 204 916 55 1359 -40 120
-144 330 -214 434 -120 179 -282 351 -450 476 -55 41 -103 75 -108 75 -4 0 -4
-17 -1 -39 4 -27 0 -51 -14 -84 l-20 -46 86 -69 c449 -359 685 -894 651 -1473
-18 -311 -130 -625 -317 -889 -79 -112 -266 -304 -372 -382 -85 -63 -205 -138
-220 -138 -6 0 -10 37 -10 89 0 88 0 90 -31 114 l-32 25 22 12 c13 6 47 14 77
17 49 5 61 11 108 57 49 47 55 56 66 119 10 56 10 76 0 108 -13 39 -12 85 10
314 15 166 13 268 -10 331 -25 72 -85 152 -160 211 -33 27 -60 53 -59 58 0 6
22 27 49 47 99 76 141 166 143 308 2 95 2 95 -38 157 -53 82 -67 89 -136 68
-124 -38 -138 -46 -194 -108 -83 -92 -118 -169 -123 -273 -4 -74 -7 -84 -23
-84 -35 0 -56 33 -63 104 -4 40 -3 74 4 85 5 11 7 40 4 65 -4 25 -3 53 1 63 5
10 7 26 6 36 -2 11 20 42 49 73 51 54 100 141 100 180 0 23 17 34 54 34 12 0
31 7 42 14 26 18 60 10 67 -15 5 -19 31 -26 41 -11 8 13 -15 84 -36 111 -10
13 -18 36 -18 52 0 15 -5 29 -10 31 -7 2 -8 24 -4 61 l7 57 50 -2 c33 -2 51 1
54 10 3 7 -4 12 -16 12 -14 0 -21 6 -21 20 0 10 -9 28 -20 38 -18 17 -19 21
-6 31 8 7 19 10 24 7 5 -3 17 3 27 14 18 20 18 21 -1 35 -10 8 -25 12 -32 10
-18 -7 -62 13 -62 28 0 7 20 18 44 25 69 18 98 49 104 111 4 44 9 54 32 66 40
21 88 80 100 124 13 48 5 91 -30 161 -24 50 -27 63 -22 136 5 93 -5 133 -49
194 -34 47 -94 77 -174 86 -42 5 -55 11 -63 30 -16 34 -105 100 -159 117 -82
26 -141 28 -220 7z m204 -15 c65 -19 126 -65 155 -115 22 -38 25 -40 71 -40
144 0 255 -156 218 -305 -11 -42 -10 -48 13 -78 39 -52 60 -127 47 -175 -13
-47 -66 -108 -107 -122 -27 -9 -29 -14 -26 -48 5 -58 -12 -90 -60 -112 -62
-28 -75 -26 -94 18 -12 27 -17 79 -21 190 l-4 153 31 10 c44 16 30 22 -19 9
-87 -23 -189 32 -239 131 -18 35 -31 55 -27 43 9 -33 -20 -49 -89 -49 -67 0
-144 31 -138 56 2 8 -11 0 -30 -18 -37 -36 -108 -70 -171 -82 -31 -7 -35 -9
-15 -10 38 -1 116 26 165 59 l41 28 53 -25 c52 -25 112 -28 175 -8 16 5 26 -2
47 -34 33 -50 91 -88 157 -103 l50 -11 0 -134 c0 -146 -9 -164 -45 -95 -16 30
-28 39 -60 45 -22 5 -54 15 -72 22 -18 8 -47 12 -66 8 -20 -3 -37 -1 -41 6 -4
6 -21 11 -38 11 -17 0 -39 7 -49 16 -20 18 -94 10 -82 -10 3 -6 -3 -3 -14 7
-11 9 -30 17 -44 17 -13 0 -33 7 -43 15 -34 26 -75 19 -94 -15 -12 -22 -23
-29 -36 -26 -10 3 -58 -11 -106 -30 -48 -18 -93 -34 -100 -34 -25 0 -69 -41
-72 -68 -2 -17 -10 -28 -22 -30 -18 -4 -18 2 -12 130 l8 133 43 37 c23 21 50
56 59 78 9 22 17 40 18 40 2 0 21 -7 43 -15 22 -8 51 -14 65 -14 14 0 -2 8
-36 18 -33 9 -78 27 -100 40 -21 12 -29 15 -16 5 26 -19 28 -44 7 -83 -16 -32
-70 -81 -88 -81 -8 0 -13 -34 -14 -108 -4 -155 -7 -164 -54 -195 -34 -22 -43
-25 -60 -14 -27 17 -42 71 -35 126 5 41 3 49 -23 74 -33 33 -81 126 -81 159 1
39 36 104 73 134 35 27 35 28 20 58 -36 70 22 187 146 295 128 111 333 143
478 74 30 -14 35 -14 59 1 33 22 157 55 210 55 22 1 63 -6 91 -14z m-389 -772
c-4 -23 -48 -31 -48 -9 0 10 6 13 17 9 11 -4 14 -3 9 5 -4 7 -1 12 9 12 10 0
15 -7 13 -17z m97 -13 c15 -16 16 -25 8 -43 -9 -20 -8 -26 7 -37 15 -11 16
-17 7 -37 -5 -12 -18 -23 -29 -23 -24 0 -23 17 2 25 28 9 25 25 -5 25 -18 0
-31 9 -43 30 -9 16 -20 30 -24 30 -15 0 -8 29 10 39 26 16 47 13 67 -9z m79 4
c9 -8 16 -19 16 -24 0 -14 -30 -40 -46 -40 -8 0 -12 5 -9 10 4 6 11 7 17 4 6
-4 4 3 -5 16 -12 18 -14 27 -5 37 13 16 13 16 32 -3z m-300 -10 c10 -4 16 -18
16 -39 0 -29 -4 -35 -35 -45 -41 -14 -65 -8 -65 16 0 16 2 16 20 -1 18 -16 20
-16 20 -2 0 10 -4 17 -10 17 -10 0 -3 27 13 48 11 14 18 15 41 6z m410 -36
c18 -25 21 -64 6 -73 -5 -3 -10 -2 -10 4 0 5 -13 18 -30 28 -28 16 -38 41 -23
56 13 14 42 6 57 -15z m114 1 c9 -12 29 -36 45 -54 30 -36 28 -65 -6 -65 -23
0 -57 27 -57 46 0 7 -13 22 -30 34 -31 22 -39 45 -17 53 26 11 48 6 65 -14z
m-638 -18 c-12 -24 -30 -28 -30 -6 0 13 31 38 38 30 2 -2 -1 -13 -8 -24z m200
19 c0 -5 -4 -10 -10 -10 -5 0 -10 5 -10 10 0 6 5 10 10 10 6 0 10 -4 10 -10z
m555 -57 c22 -52 19 -73 -8 -73 -20 0 -23 5 -24 41 -1 22 -5 49 -8 59 -11 35
24 11 40 -27z m-547 14 c2 -11 -6 -19 -23 -23 -14 -3 -32 -19 -41 -35 -12 -24
-21 -29 -49 -29 -24 0 -35 5 -35 14 0 22 29 46 55 46 16 0 25 7 29 24 5 20 12
24 34 22 15 -2 28 -10 30 -19z m-273 -2 c6 0 11 -10 11 -22 1 -16 -9 -29 -33
-43 -40 -24 -50 -25 -33 -5 6 8 9 23 5 35 -8 24 12 53 29 43 6 -4 16 -8 21 -8z
m521 -17 c4 -7 8 -22 9 -34 0 -19 -5 -22 -30 -22 -33 1 -45 12 -45 46 0 18 6
22 29 22 17 0 33 -5 37 -12z m-172 -25 c2 -10 7 -45 11 -78 3 -33 11 -77 16
-98 6 -21 12 -55 15 -75 2 -20 9 -52 15 -69 6 -18 8 -41 4 -52 -4 -15 2 -23
26 -35 37 -18 54 -7 42 29 -4 11 -6 39 -5 63 1 24 -4 53 -12 65 -14 23 -16
130 -3 143 4 4 7 16 7 26 0 26 30 23 70 -7 50 -37 56 -53 25 -65 -15 -6 -33
-10 -42 -10 -10 0 -14 -6 -10 -20 6 -25 -1 -26 -19 -2 -12 16 -13 15 -14 -5 0
-37 42 -57 103 -48 74 10 92 8 137 -15 44 -22 70 -54 70 -86 0 -12 7 -27 15
-34 11 -9 13 -24 9 -54 l-5 -41 20 43 c24 51 37 56 16 7 -8 -21 -12 -48 -8
-65 4 -23 2 -30 -10 -30 -8 0 -17 6 -20 13 -2 6 -7 -8 -11 -33 -26 -154 -58
-237 -119 -307 -43 -48 -51 -43 -43 29 3 34 4 59 0 56 -11 -11 -27 -134 -25
-191 2 -54 0 -58 -17 -53 -16 5 -23 -2 -38 -45 -22 -61 -40 -72 -55 -32 l-11
28 -16 -30 c-16 -28 -17 -29 -20 -7 -4 28 -18 28 -32 1 -11 -20 -12 -20 -26
-2 -13 17 -15 17 -25 1 -12 -21 -35 -24 -42 -5 -3 9 -9 7 -24 -5 -24 -22 -28
-22 -47 -2 -14 13 -18 13 -36 1 -11 -7 -17 -17 -13 -20 3 -4 12 -2 20 4 10 9
18 8 33 -6 15 -14 23 -15 34 -6 10 8 16 9 21 2 4 -7 15 -5 32 6 24 16 26 16
35 0 7 -14 13 -15 29 -6 12 6 23 8 27 5 7 -8 6 -9 -65 -45 -72 -36 -89 -57
-98 -126 -4 -27 -14 -58 -23 -67 -14 -16 -14 -18 0 -18 19 0 24 12 33 76 12
80 37 108 132 143 26 10 56 22 66 26 36 15 16 -15 -24 -35 -23 -12 -39 -24
-36 -26 3 -3 37 11 76 30 85 43 101 45 101 10 0 -14 5 -46 11 -71 11 -40 17
-47 55 -64 41 -17 44 -21 44 -56 0 -61 -36 -190 -62 -222 -29 -38 -34 -38 -41
-1 -8 38 -51 52 -72 24 -8 -11 -12 -26 -9 -36 3 -9 0 -19 -6 -23 -6 -4 -8 -14
-5 -24 3 -11 -10 -38 -35 -72 -90 -124 -118 -166 -137 -210 -26 -58 -71 -110
-131 -147 l-47 -30 -122 16 c-92 12 -123 19 -123 30 0 8 -9 25 -20 39 -11 14
-20 35 -20 46 0 11 -12 46 -27 79 -26 58 -26 62 -16 152 17 143 56 218 128
245 l30 11 -30 -5 c-70 -13 -111 -81 -144 -237 -8 -43 -19 -78 -23 -78 -20 0
-15 51 18 161 47 158 50 165 93 183 20 8 29 15 21 15 -8 1 -28 -7 -45 -18 -25
-15 -36 -36 -64 -117 -56 -163 -48 -150 -73 -128 -11 11 -29 33 -39 49 l-19
30 0 -26 c0 -16 13 -38 35 -59 19 -19 35 -42 35 -51 0 -10 11 -30 25 -45 35
-38 73 -120 81 -176 5 -43 4 -48 -12 -48 -15 0 -13 -6 13 -28 17 -15 39 -45
48 -67 22 -55 72 -103 113 -111 21 -4 37 -14 42 -28 8 -18 9 -19 9 -2 1 19 0
19 74 0 14 -3 31 1 45 13 27 21 46 91 30 110 -13 17 3 17 91 2 116 -20 169
-63 201 -163 10 -34 19 -54 19 -45 2 32 -28 111 -54 145 -14 19 -44 44 -67 55
-48 25 -41 35 30 41 46 5 58 2 82 -19 16 -13 32 -33 35 -44 4 -11 9 -19 11
-16 11 11 -28 75 -52 85 -28 13 -144 6 -144 -8 0 -17 -35 -20 -99 -9 -36 6
-68 13 -70 15 -2 1 24 28 57 59 42 39 72 79 103 138 23 45 63 105 89 132 70
75 88 107 92 156 4 57 29 61 40 6 6 -31 3 -47 -17 -86 l-24 -49 40 -16 c21 -9
51 -16 65 -16 34 0 130 -55 151 -86 14 -23 14 -26 -2 -44 -19 -21 -45 -27 -45
-10 0 6 -7 10 -15 10 -21 0 -19 -14 6 -36 44 -40 48 -91 6 -78 -17 5 -19 3
-12 -12 5 -11 8 -35 7 -54 -3 -41 -18 -61 -28 -36 -5 14 -9 15 -15 4 -7 -10
-12 -11 -29 0 -11 6 -28 12 -37 11 -12 0 -7 -6 13 -14 50 -22 82 -69 110 -163
34 -114 35 -116 28 -57 -3 28 -18 79 -35 114 -16 35 -29 66 -29 68 0 8 101 -3
125 -13 17 -7 18 -6 8 8 -7 8 -9 18 -5 23 4 4 -14 4 -40 1 -46 -7 -48 -6 -48
18 0 35 28 47 102 41 35 -2 53 -2 41 1 -15 4 -20 10 -16 21 5 14 0 15 -33 10
-21 -4 -50 -10 -63 -14 -22 -6 -23 -4 -16 18 4 13 8 41 9 61 1 25 9 45 29 66
24 25 26 32 17 53 -7 15 -32 34 -62 48 -28 13 -52 31 -55 41 -3 12 -12 16 -29
12 -29 -5 -30 3 -6 43 18 30 19 55 1 55 -5 0 -21 -18 -35 -40 -27 -41 -38 -46
-63 -31 -13 8 -12 15 3 48 9 21 25 49 35 61 17 23 18 23 55 8 31 -13 37 -20
33 -37 -4 -16 -3 -18 9 -8 8 6 18 26 22 43 8 31 69 87 179 162 37 26 57 34 72
29 33 -10 135 -109 174 -168 68 -102 79 -185 53 -402 -8 -66 -18 -153 -21
-193 -8 -83 -24 -85 -30 -5 -4 63 -77 273 -115 333 -16 25 -36 61 -45 80 l-16
35 7 -35 c3 -19 17 -51 30 -70 13 -19 38 -82 57 -138 19 -57 39 -107 44 -110
6 -4 14 -43 18 -87 4 -44 13 -98 21 -120 8 -22 17 -69 20 -105 6 -62 5 -66
-22 -94 -55 -54 -93 -79 -115 -73 -22 6 -85 -11 -146 -39 -17 -8 -59 -14 -93
-14 l-61 0 15 22 c26 36 18 42 -10 8 -45 -53 -143 -89 -189 -70 l-20 8 20 7
c47 16 67 26 62 31 -3 3 -14 1 -25 -5 -12 -6 -35 -11 -53 -11 l-32 0 24 27 24
26 -31 -22 c-33 -24 -74 -20 -53 5 15 18 1 17 -31 -1 -51 -29 -130 -8 -130 35
0 14 9 20 38 23 26 3 20 4 -23 6 -36 1 -83 11 -117 25 -32 13 -55 20 -53 15 3
-4 30 -17 61 -28 33 -13 70 -37 93 -61 36 -38 41 -40 95 -40 51 0 61 -3 85
-29 16 -17 40 -33 54 -36 14 -4 28 -14 31 -22 5 -12 10 -13 20 -4 7 6 25 12
40 13 14 1 26 8 26 15 0 17 15 16 33 -2 13 -12 16 -10 22 18 6 28 8 30 15 12
5 -11 9 -30 9 -42 1 -20 -4 -23 -43 -23 -44 0 -61 -11 -111 -72 -16 -19 -41
-29 -107 -43 -72 -15 -119 -17 -285 -13 -109 2 -180 1 -158 -3 22 -4 120 -8
218 -8 162 -1 189 2 290 26 62 16 102 29 90 31 -13 2 -23 6 -23 10 1 28 53 56
91 48 16 -3 29 -2 29 3 0 15 58 34 89 29 22 -3 31 0 34 13 3 11 19 20 41 24
20 4 40 14 44 21 7 12 11 12 27 0 17 -12 20 -28 22 -99 1 -54 -2 -90 -10 -101
-7 -10 -62 -37 -122 -61 l-110 -44 -6 27 c-4 15 -10 39 -13 55 -7 31 -39 67
-58 67 -7 0 -5 -5 5 -11 23 -13 22 -24 -5 -37 -20 -10 -19 -10 10 -5 24 4 32
2 32 -10 0 -10 -17 -19 -52 -27 -29 -7 -60 -17 -68 -22 -12 -7 -10 -8 5 -4 92
23 116 28 121 23 3 -2 6 -17 7 -33 2 -27 -1 -30 -48 -38 -27 -5 -108 -22 -180
-38 -77 -17 -175 -31 -240 -35 -193 -10 -438 26 -635 95 -76 26 -85 32 -84 53
1 13 2 39 3 56 l1 32 69 -34 c99 -50 122 -43 27 8 -90 48 -109 68 -85 92 14
14 21 13 72 -10 32 -15 63 -25 70 -22 6 2 -1 7 -18 11 -34 8 -88 45 -66 46 7
0 28 15 45 33 18 17 45 41 60 51 15 11 34 32 41 46 9 17 28 31 55 39 64 19 40
24 -30 6 -33 -9 -87 -20 -118 -24 l-57 -9 70 -1 70 -2 -27 -24 c-41 -35 -127
-52 -196 -37 -68 14 -85 30 -112 102 l-20 55 5 -47 c2 -27 1 -48 -4 -48 -14 0
-68 92 -76 127 -8 39 17 134 41 154 14 11 16 10 14 -11 -1 -14 -1 -41 0 -60 2
-34 2 -33 14 15 19 75 51 130 91 155 32 20 62 20 50 -1 -3 -5 1 -6 9 -3 22 9
20 -8 -5 -40 -20 -26 -49 -104 -49 -133 0 -7 5 -13 10 -13 6 0 10 14 10 32 0
36 32 107 59 132 16 14 25 15 72 5 43 -9 160 -58 178 -75 2 -2 -2 -12 -10 -21
-11 -15 -11 -16 1 -5 24 21 47 14 142 -45 l91 -56 -29 -25 -29 -25 39 22 c32
18 41 19 54 9 11 -9 14 -9 9 -1 -12 20 -275 174 -366 214 -47 21 -88 34 -91
29 -14 -22 -110 26 -110 54 0 6 -15 20 -34 30 -26 14 -35 26 -40 54 -3 21 -9
50 -12 66 l-7 28 27 -17 c14 -10 26 -13 26 -7 0 5 -11 17 -24 25 -26 18 -43
66 -26 77 7 4 4 19 -9 46 -37 76 -50 114 -45 128 5 13 11 13 47 -1 23 -9 60
-29 83 -44 40 -27 53 -32 122 -43 30 -5 32 -4 32 25 0 16 -9 47 -20 69 -23 44
-25 94 -7 129 17 33 37 38 37 9 1 -15 12 1 34 47 36 78 39 80 116 121 30 15
86 46 123 67 41 23 77 37 88 34 23 -6 23 -8 4 37 l-15 36 27 0 c41 0 52 -12
62 -61 l9 -44 1 47 c1 52 -7 61 -71 73 -47 9 -66 29 -48 50 10 12 15 13 28 3
8 -7 33 -18 55 -23 23 -6 48 -21 60 -36 17 -24 18 -34 10 -98 -7 -54 -7 -71 3
-71 19 0 23 117 6 165 -19 52 -28 150 -13 141 15 -10 14 1 -5 29 -10 16 -14
34 -10 50 4 14 3 25 -1 25 -24 1 -47 35 -58 87 -7 32 -13 48 -14 36 -4 -94
-91 55 -118 202 -27 151 -33 228 -19 250 8 11 17 40 21 63 4 24 14 56 22 72
16 33 26 35 151 31 93 -4 126 13 111 58 -17 50 -31 55 -99 41 -33 -7 -63 -10
-66 -7 -11 11 41 30 78 29 30 -2 48 7 100 49 35 27 67 59 72 69 11 25 23 26
30 3z m304 5 c7 -7 12 -20 12 -30 0 -11 7 -18 20 -18 10 0 24 -9 30 -20 6 -11
7 -20 1 -20 -5 0 -12 7 -15 16 -4 10 -12 14 -23 10 -21 -9 -53 21 -53 51 0 25
10 29 28 11z m-563 -18 c0 -22 -29 -18 -33 3 -3 14 1 18 15 15 10 -2 18 -10
18 -18z m185 10 c0 -13 -28 -25 -38 -16 -3 4 0 11 8 16 20 13 30 12 30 0z
m-233 -22 c-3 -8 -6 -5 -6 6 -1 11 2 17 5 13 3 -3 4 -12 1 -19z m824 -35 c-9
-15 -10 -12 -10 17 0 29 1 32 10 18 7 -12 7 -24 0 -35z m-865 -18 c-10 -14
-23 -24 -29 -22 -20 6 -20 37 -1 58 16 17 19 18 32 5 13 -13 13 -18 -2 -41z
m598 30 c6 -11 17 -24 24 -28 18 -12 15 -25 -8 -37 -17 -9 -23 -6 -40 22 -25
41 -26 71 -4 66 9 -2 22 -12 28 -23z m-484 -4 c0 -23 -48 -76 -71 -79 -18 -2
-30 -14 -44 -45 -26 -54 -45 -60 -45 -13 0 27 7 42 30 63 17 14 30 33 30 40 0
8 15 20 33 28 36 16 67 19 67 6z m270 -1 c0 -5 -4 -10 -10 -10 -5 0 -10 5 -10
10 0 6 5 10 10 10 6 0 10 -4 10 -10z m-158 -12 c-9 -9 -15 -9 -24 0 -9 9 -7
12 12 12 19 0 21 -3 12 -12z m-62 -2 c0 -2 3 -11 6 -20 4 -11 0 -16 -13 -16
-25 0 -33 8 -26 26 4 12 33 21 33 10z m273 -10 c7 -18 -1 -26 -25 -26 -18 0
-25 20 -11 33 11 12 31 8 36 -7z m-563 -22 c0 -16 -16 -19 -25 -4 -8 13 4 32
16 25 5 -4 9 -13 9 -21z m905 -21 c7 -9 11 -23 8 -30 -7 -18 -33 -17 -33 1 0
8 -3 21 -6 30 -8 22 15 21 31 -1z m-95 -28 c0 -7 -7 -18 -15 -25 -12 -10 -15
-7 -21 14 -8 33 3 51 22 35 8 -6 14 -17 14 -24z m158 -4 c0 -22 -3 -28 -14
-24 -14 5 -20 44 -8 56 12 12 21 -2 22 -32z m-919 15 c8 -9 8 -21 0 -45 -13
-35 -10 -34 -43 -21 -30 11 -33 35 -9 62 19 21 36 23 52 4z m-109 0 c0 -11
-19 -15 -25 -6 -3 5 1 10 9 10 9 0 16 -2 16 -4z m610 -4 c0 -13 -12 -22 -22
-16 -10 6 -1 24 13 24 5 0 9 -4 9 -8z m200 -33 c7 -11 9 -24 5 -27 -9 -9 -40
13 -43 32 -5 23 25 20 38 -5z m95 12 c7 -12 -22 -41 -40 -41 -10 0 -7 7 8 24
27 29 25 28 32 17z m193 -12 c9 -14 10 -25 4 -31 -14 -14 -40 12 -34 34 6 24
14 23 30 -3z m-745 -18 l22 -23 -45 7 c-71 11 -97 42 -34 40 22 -1 43 -10 57
-24z m248 6 c-6 -8 -7 -18 -3 -22 4 -5 1 -5 -5 -1 -19 10 -16 36 3 36 13 0 14
-3 5 -13z m165 -25 c-9 -8 -26 10 -26 26 1 15 2 15 15 -2 8 -11 13 -21 11 -24z
m262 2 c27 -19 28 -26 1 -42 -17 -11 -25 -11 -45 3 -31 20 -32 55 -1 55 12 0
33 -7 45 -16z m-894 -30 c8 -22 8 -22 -12 -33 -29 -15 -45 1 -26 27 18 26 30
28 38 6z m501 -49 c0 -30 -39 -27 -43 3 -3 20 0 23 20 20 15 -2 23 -10 23 -23z
m-596 -34 c10 -17 7 -19 -24 -18 -19 1 -35 2 -35 3 0 34 43 45 59 15z m81 2
c-1 -18 -29 -88 -36 -90 -5 -1 -15 1 -22 5 -10 7 -10 13 0 34 8 13 18 23 25
21 6 -2 14 1 18 6 3 6 1 11 -4 11 -6 0 -11 5 -11 10 0 6 7 10 15 10 8 0 15 -3
15 -7z m910 -3 c0 -5 -9 -10 -20 -10 -11 0 -20 5 -20 10 0 6 9 10 20 10 11 0
20 -4 20 -10z m-380 -50 c0 -5 -5 -10 -11 -10 -5 0 -7 5 -4 10 3 6 8 10 11 10
2 0 4 -4 4 -10z m440 -17 c0 -36 -26 -120 -45 -150 -9 -13 -24 -23 -35 -23
-26 0 -26 20 0 27 21 6 27 22 28 83 1 19 9 40 17 46 9 7 13 18 9 28 -4 11 -1
16 10 16 11 0 16 -9 16 -27z m-1071 -10 c0 -10 -4 -27 -9 -38 -8 -21 -13 -16
-23 33 -4 17 -1 22 14 22 12 0 19 -7 18 -17z m45 -32 c3 -5 -1 -12 -10 -15
-22 -9 -24 -8 -24 9 0 16 25 21 34 6z m36 -105 c0 -41 -19 -74 -33 -59 -17 16
2 103 23 103 5 0 10 -20 10 -44z m-50 -21 c0 -8 -7 -15 -15 -15 -8 0 -15 7
-15 15 0 8 7 15 15 15 8 0 15 -7 15 -15z m970 -29 c0 -16 -14 -36 -26 -36 -14
0 -19 22 -7 33 7 8 33 10 33 3z m-976 -21 c7 -20 -3 -45 -19 -45 -14 0 -27 38
-19 52 8 13 31 9 38 -7z m4 -84 c23 -20 29 -41 11 -41 -11 0 -48 40 -49 53 0
12 14 7 38 -12z m1257 -141 c3 -5 2 -10 -4 -10 -5 0 -13 5 -16 10 -3 6 -2 10
4 10 5 0 13 -4 16 -10z m-55 -21 c0 -11 -4 -18 -9 -15 -8 5 -71 -57 -71 -69 0
-12 31 10 45 32 9 13 19 22 22 19 3 -3 14 4 24 15 10 12 23 18 29 14 14 -9 4
-61 -27 -144 -13 -35 -22 -66 -19 -68 2 -2 10 13 16 34 7 21 21 52 31 69 11
17 19 40 19 50 0 16 5 14 25 -11 27 -31 28 -49 11 -215 -6 -64 -87 -190 -121
-190 -4 0 -50 -34 -101 -75 -52 -42 -111 -85 -132 -97 -20 -12 -47 -30 -59
-41 -13 -11 -23 -15 -23 -9 0 6 40 53 89 104 108 114 179 198 97 116 -32 -32
-61 -58 -66 -58 -23 0 -154 -176 -146 -197 6 -15 -3 -17 -24 -3 -11 7 -11 10
-2 10 7 0 10 5 6 11 -3 6 -2 14 3 18 15 9 69 106 55 97 -26 -16 -30 6 -12 70
16 60 16 68 2 96 -13 27 -13 42 -4 105 19 121 65 208 156 295 26 25 76 39 76
22 0 -4 -18 -26 -39 -49 -44 -48 -74 -102 -102 -184 -28 -80 -16 -74 16 9 32
85 91 175 145 224 46 41 90 49 90 15z m-938 -276 c3 -10 3 -24 1 -30 -5 -15
-42 -17 -63 -3 -12 7 -12 12 4 29 23 26 52 27 58 4z m-509 -556 c7 -21 5 -32
-6 -45 -8 -9 -12 -23 -10 -29 7 -20 -41 -16 -65 5 -12 9 -24 29 -27 43 -6 23
-2 28 32 42 50 21 64 18 76 -16z m277 -333 c0 -8 -4 -12 -10 -9 -5 3 -10 10
-10 16 0 5 5 9 10 9 6 0 10 -7 10 -16z m275 -83 c22 -5 31 -10 20 -10 -15 -1
-17 -3 -7 -10 11 -6 10 -11 -4 -25 -20 -20 -59 -17 -59 4 0 8 -8 21 -17 28
-25 18 -22 33 5 27 12 -3 40 -9 62 -14z m-686 -71 c-13 -8 -40 -30 -60 -47
-20 -18 -39 -33 -43 -33 -11 0 5 53 32 102 l25 47 35 -27 34 -26 -23 -16z
m1451 -474 c0 -2 -11 -6 -25 -8 -14 -3 -25 -1 -25 3 0 5 11 9 25 9 14 0 25 -2
25 -4z m-106 -21 c3 -9 -1 -18 -10 -22 -19 -7 -28 2 -21 22 8 19 23 19 31 0z
m-50 -20 c3 -8 1 -15 -4 -15 -6 0 -10 7 -10 15 0 8 2 15 4 15 2 0 6 -7 10 -15z"/>
<path d="M3588 5168 c-21 -6 -38 -14 -38 -19 0 -5 12 -4 26 1 14 6 39 10 55
10 16 0 29 5 29 10 0 12 -22 11 -72 -2z"/>
<path d="M4140 5160 c34 -11 60 -11 35 0 -11 5 -29 8 -40 8 -16 0 -15 -2 5 -8z"/>
<path d="M4055 5125 c-30 -29 -35 -85 -7 -84 10 0 12 3 5 6 -27 10 -7 63 23
63 7 0 16 -9 19 -20 8 -24 40 -26 53 -4 6 11 16 14 31 9 18 -5 20 -9 10 -22
-10 -11 -5 -11 24 3 21 10 34 21 29 26 -11 11 -122 48 -144 48 -10 0 -30 -11
-43 -25z m85 -35 c0 -5 -4 -10 -10 -10 -5 0 -10 5 -10 10 0 6 5 10 10 10 6 0
10 -4 10 -10z"/>
<path d="M3586 5115 c-27 -13 -58 -26 -70 -29 -19 -5 -18 -7 13 -31 36 -26 53
-26 31 0 -15 18 -13 20 16 29 15 4 24 2 28 -9 3 -8 13 -15 23 -15 14 0 15 2 4
9 -18 11 -5 32 15 24 9 -3 19 -1 23 5 5 8 13 8 31 -1 34 -17 35 -34 3 -51 -33
-18 -16 -21 22 -4 33 15 32 28 -8 66 -39 38 -64 39 -131 7z"/>
<path d="M3970 4911 c0 -5 7 -15 17 -22 15 -13 15 -12 4 9 -12 23 -21 28 -21
13z"/>
<path d="M4006 4855 c4 -8 8 -15 10 -15 2 0 4 7 4 15 0 8 -4 15 -10 15 -5 0
-7 -7 -4 -15z"/>
<path d="M3901 4830 c-25 -22 -76 -27 -87 -9 -4 8 -9 8 -17 0 -17 -17 -65 -13
-77 7 -9 14 -10 13 -6 -10 4 -19 1 -30 -11 -38 -16 -10 -16 -11 2 -5 53 19 98
23 192 21 79 -2 103 0 107 11 5 11 -2 12 -29 7 -31 -5 -35 -4 -35 15 0 26 -8
26 -39 1z"/>
<path d="M4079 4771 c44 -11 67 -23 72 -36 8 -17 8 -17 6 5 -1 18 -9 26 -27
28 -14 2 -29 8 -34 13 -6 5 -26 9 -45 8 -31 -1 -27 -3 28 -18z"/>
<path d="M3613 4771 c-61 -10 -62 -19 -4 -19 31 0 55 6 62 14 13 16 11 16 -58
5z"/>
<path d="M3803 4767 c-23 -7 -45 -16 -50 -21 -4 -5 -3 -7 2 -3 6 3 17 2 24 -3
22 -13 -23 -31 -91 -37 -73 -7 -72 -25 3 -35 69 -9 273 -1 319 12 19 6 51 10
72 10 l36 0 -10 -37 c-5 -21 -19 -47 -29 -58 -11 -11 -26 -29 -33 -39 -12 -18
-24 -19 -122 -16 -60 2 -130 3 -156 2 -27 -1 -48 3 -48 8 0 6 -11 10 -24 10
-15 0 -26 7 -29 20 -3 11 -12 20 -21 20 -20 0 -21 -16 -1 -24 8 -3 15 -15 15
-26 0 -17 4 -20 20 -15 11 4 20 2 20 -4 0 -6 7 -11 15 -11 9 0 18 -7 22 -16 5
-14 8 -13 23 6 12 16 23 21 38 15 12 -3 22 -10 22 -14 0 -4 7 -16 15 -27 15
-18 15 -18 13 11 -3 27 0 30 27 31 17 1 33 -4 37 -10 5 -8 11 -7 20 2 18 18
45 15 61 -9 14 -20 16 -20 25 -2 10 16 14 16 33 5 20 -13 21 -12 16 8 -4 16
-2 20 9 16 12 -5 12 -2 3 15 -9 17 -7 21 9 25 14 4 22 21 30 68 15 82 15 96
-3 96 -8 0 -12 -6 -9 -13 3 -9 -7 -12 -38 -10 -54 3 -136 22 -144 34 -3 5 1 7
8 5 41 -13 72 -17 63 -8 -9 10 -116 33 -139 31 -6 -1 -30 -6 -53 -12z m64 -17
c21 0 23 -3 14 -14 -9 -11 -19 -12 -46 -3 -19 5 -32 14 -29 19 3 5 13 7 21 4
8 -3 26 -6 40 -6z m43 -40 c-14 -25 -48 -34 -83 -21 -40 15 -24 32 22 25 24
-4 41 -2 45 5 13 20 27 12 16 -9z"/>
<path d="M4011 4746 c2 -2 22 -6 44 -9 28 -5 34 -4 20 3 -19 8 -73 14 -64 6z"/>
<path d="M3640 4731 c-31 -3 -48 -9 -39 -12 8 -4 35 -3 60 1 24 5 47 6 51 4 4
-2 9 0 13 6 3 5 -2 9 -12 8 -10 -1 -43 -4 -73 -7z"/>
<path d="M3606 4683 c-6 -14 -5 -15 5 -6 7 7 10 15 7 18 -3 3 -9 -2 -12 -12z"/>
<path d="M3571 4660 c0 -19 3 -30 7 -24 4 7 18 14 32 17 l25 4 -27 2 c-16 0
-28 8 -31 19 -3 9 -5 1 -6 -18z"/>
<path d="M3722 4607 c60 -56 328 -44 328 15 0 6 -9 3 -20 -7 -18 -17 -28 -18
-92 -9 -48 7 -84 7 -110 0 -27 -7 -47 -7 -66 1 -66 26 -68 26 -40 0z"/>
<path d="M3865 4219 c-4 -6 -5 -12 -2 -15 2 -3 7 2 10 11 7 17 1 20 -8 4z"/>
<path d="M3612 4065 c-11 -12 -10 -15 3 -15 8 0 15 7 15 15 0 18 -2 18 -18 0z"/>
<path d="M3785 4048 c-11 -7 -58 -20 -105 -29 -47 -10 -74 -17 -60 -18 55 -1
190 37 190 54 0 7 -2 6 -25 -7z"/>
<path d="M3468 4033 c7 -3 16 -2 19 1 4 3 -2 6 -13 5 -11 0 -14 -3 -6 -6z"/>
<path d="M3528 3993 c6 -2 18 -2 25 0 6 3 1 5 -13 5 -14 0 -19 -2 -12 -5z"/>
<path d="M3436 3894 c-20 -19 -20 -35 -2 -59 12 -17 18 -18 40 -7 14 6 26 17
26 24 0 9 -3 9 -12 0 -7 -7 -20 -12 -30 -12 -23 0 -24 33 -2 51 14 11 18 11
29 -4 17 -24 28 -21 15 3 -13 24 -43 26 -64 4z"/>
<path d="M4481 3834 c0 -11 3 -14 6 -6 3 7 2 16 -1 19 -3 4 -6 -2 -5 -13z"/>
<path d="M4491 3784 c0 -11 3 -14 6 -6 3 7 2 16 -1 19 -3 4 -6 -2 -5 -13z"/>
<path d="M4501 3744 c0 -11 3 -14 6 -6 3 7 2 16 -1 19 -3 4 -6 -2 -5 -13z"/>
<path d="M3402 3648 c-20 -20 -15 -66 9 -78 42 -23 78 40 43 74 -19 19 -36 20
-52 4z m46 -36 c2 -13 -3 -25 -13 -28 -23 -9 -38 10 -30 36 9 27 39 22 43 -8z"/>
<path d="M3038 3560 c-10 -6 -19 -29 -23 -58 -3 -26 -8 -57 -11 -69 -3 -18 0
-23 16 -23 11 0 20 -7 20 -15 0 -8 -4 -15 -10 -15 -5 0 -10 5 -10 12 0 6 -2 9
-5 6 -14 -14 18 -60 50 -73 48 -21 184 -20 191 0 9 23 -55 170 -92 210 -26 29
-39 35 -70 35 -22 0 -47 -5 -56 -10z m52 -29 c17 -32 12 -44 -14 -37 -15 4
-26 1 -29 -7 -2 -6 -7 -9 -11 -6 -12 11 5 38 21 32 12 -5 14 -1 8 15 -8 27 10
29 25 3z m111 -97 c16 -34 29 -72 29 -84 0 -21 -3 -22 -85 -19 -88 4 -121 18
-96 42 11 10 14 10 18 0 3 -7 9 -13 14 -13 4 0 6 8 2 18 -5 13 -1 12 16 -5 24
-25 41 -32 22 -9 -8 10 -9 16 -1 21 6 3 8 12 4 18 -7 15 17 -15 31 -38 10 -17
45 -12 45 6 0 6 -10 5 -21 -2 -20 -10 -21 -9 -17 9 4 13 0 23 -8 26 -20 8 -17
34 3 38 16 3 16 5 -2 23 -30 30 -55 72 -48 79 12 12 65 -50 94 -110z m-51 26
c0 -5 -7 -10 -16 -10 -8 0 -12 5 -9 10 3 6 10 10 16 10 5 0 9 -4 9 -10z m-55
-25 c0 -30 -39 -27 -43 3 -3 20 0 23 20 20 15 -2 23 -10 23 -23z"/>
<path d="M4458 3373 c7 -3 16 -2 19 1 4 3 -2 6 -13 5 -11 0 -14 -3 -6 -6z"/>
<path d="M3347 3363 c-4 -3 -7 -11 -7 -17 0 -6 5 -5 12 2 6 6 9 14 7 17 -3 3
-9 2 -12 -2z"/>
<path d="M4108 3343 c7 -3 16 -2 19 1 4 3 -2 6 -13 5 -11 0 -14 -3 -6 -6z"/>
<path d="M3356 3332 c-3 -5 -3 -25 1 -46 5 -35 7 -36 24 -20 15 14 19 14 19 3
1 -10 4 -9 11 4 8 14 5 23 -13 42 -25 26 -34 30 -42 17z"/>
<path d="M4421 3316 c20 -8 50 -21 67 -30 18 -9 32 -12 32 -7 0 15 -50 38 -95
45 l-40 6 36 -14z"/>
<path d="M4371 3214 c63 -66 99 -119 99 -145 0 -7 -7 -4 -16 7 -14 18 -15 18
-8 -6 9 -34 22 -46 35 -33 30 30 -54 163 -145 225 -18 13 -4 -6 35 -48z"/>
<path d="M4096 3250 c3 -14 11 -32 16 -40 6 -10 7 -7 2 10 -3 14 -11 32 -16
40 -6 10 -7 7 -2 -10z"/>
<path d="M3404 3235 c-21 -31 -14 -41 18 -23 12 7 25 14 27 15 2 1 -4 9 -12
18 -15 14 -18 13 -33 -10z"/>
<path d="M3792 3230 c0 -14 2 -19 5 -12 2 6 2 18 0 25 -3 6 -5 1 -5 -13z"/>
<path d="M4171 3210 c0 -8 4 -22 9 -30 12 -18 12 -2 0 25 -6 13 -9 15 -9 5z"/>
<path d="M3447 3203 c-13 -12 -7 -34 11 -40 9 -4 22 -13 27 -21 9 -11 14 -10
29 7 21 23 12 45 -15 38 -11 -3 -17 -2 -14 3 3 4 -2 11 -11 14 -19 7 -19 7
-27 -1z"/>
<path d="M4605 3200 c-3 -5 -1 -10 4 -10 6 0 11 5 11 10 0 6 -2 10 -4 10 -3 0
-8 -4 -11 -10z"/>
<path d="M4197 3085 c3 -44 7 -82 9 -84 8 -9 2 115 -6 139 -5 15 -6 -7 -3 -55z"/>
<path d="M3620 3109 c0 -11 5 -17 10 -14 6 3 10 13 10 21 0 8 -4 14 -10 14 -5
0 -10 -9 -10 -21z"/>
<path d="M3656 3110 c7 -7 19 -7 35 -1 23 9 22 10 -10 10 -24 1 -32 -2 -25 -9z"/>
<path d="M4202 2965 c0 -16 2 -22 5 -12 2 9 2 23 0 30 -3 6 -5 -1 -5 -18z"/>
<path d="M3474 2964 c-18 -14 -18 -15 4 -4 12 6 22 13 22 15 0 8 -5 6 -26 -11z"/>
<path d="M3940 2933 c-14 -7 -18 -13 -10 -13 17 0 47 17 40 23 -3 2 -16 -2
-30 -10z"/>
<path d="M3400 2930 c-9 -6 -10 -10 -3 -10 6 0 15 5 18 10 8 12 4 12 -15 0z"/>
<path d="M3080 2900 c0 -9 39 -25 46 -18 2 3 -7 10 -21 16 -14 6 -25 7 -25 2z"/>
<path d="M3280 2815 c-15 -18 -6 -61 15 -69 39 -14 64 24 40 60 -18 27 -37 31
-55 9z m48 -29 c2 -10 -1 -23 -7 -29 -15 -15 -46 16 -37 38 8 21 40 15 44 -9z"/>
<path d="M3909 2764 c-5 -15 -7 -35 -4 -45 9 -27 61 -26 75 1 6 11 7 20 1 20
-5 0 -11 -7 -15 -15 -3 -8 -14 -15 -25 -15 -21 0 -33 22 -25 45 7 18 35 20 53
3 11 -11 11 -9 2 10 -16 31 -49 28 -62 -4z"/>
<path d="M4205 2750 c3 -5 8 -10 11 -10 2 0 4 5 4 10 0 6 -5 10 -11 10 -5 0
-7 -4 -4 -10z"/>
<path d="M3318 2643 c7 -3 16 -2 19 1 4 3 -2 6 -13 5 -11 0 -14 -3 -6 -6z"/>
<path d="M3358 2633 c6 -2 18 -2 25 0 6 3 1 5 -13 5 -14 0 -19 -2 -12 -5z"/>
<path d="M3408 2623 c6 -2 18 -2 25 0 6 3 1 5 -13 5 -14 0 -19 -2 -12 -5z"/>
<path d="M3473 2613 c9 -2 25 -2 35 0 9 3 1 5 -18 5 -19 0 -27 -2 -17 -5z"/>
<path d="M4048 2543 c7 -3 16 -2 19 1 4 3 -2 6 -13 5 -11 0 -14 -3 -6 -6z"/>
<path d="M3998 2533 c6 -2 18 -2 25 0 6 3 1 5 -13 5 -14 0 -19 -2 -12 -5z"/>
<path d="M3948 2523 c7 -3 16 -2 19 1 4 3 -2 6 -13 5 -11 0 -14 -3 -6 -6z"/>
<path d="M4421 4397 c-17 -26 -28 -47 -23 -47 14 0 64 69 60 82 -3 7 -19 -9
-37 -35z"/>
<path d="M4556 4353 c-6 -14 -5 -15 5 -6 7 7 10 15 7 18 -3 3 -9 -2 -12 -12z"/>
<path d="M4343 4282 c-12 -8 -43 -73 -43 -92 0 -20 17 -10 30 18 12 26 30 82
27 82 -1 0 -7 -4 -14 -8z"/>
<path d="M4510 4225 c-17 -25 -29 -45 -26 -45 3 0 19 20 36 45 17 25 29 45 26
45 -3 0 -19 -20 -36 -45z"/>
<path d="M4286 4235 c-9 -26 -7 -32 5 -12 6 10 9 21 6 23 -2 3 -7 -2 -11 -11z"/>
<path d="M4332 4109 c-18 -27 -30 -49 -28 -49 10 0 75 89 69 93 -5 3 -23 -17
-41 -44z"/>
<path d="M4252 4066 c-6 -22 -10 -41 -8 -43 7 -7 28 56 23 69 -2 7 -9 -5 -15
-26z"/>
<path d="M3067 3764 c-14 -15 -6 -34 14 -34 14 0 19 5 17 17 -3 18 -20 27 -31
17z"/>
<path d="M1154 2159 c-58 -16 -211 -125 -239 -169 -39 -62 -42 -92 -12 -142
36 -62 61 -82 84 -69 39 20 43 34 27 86 -22 74 -12 97 69 165 75 63 107 75
107 39 0 -12 -31 -141 -69 -288 -90 -348 -89 -336 -54 -355 58 -30 103 -22
103 17 0 35 66 311 102 427 28 89 39 111 75 147 64 64 124 69 131 11 2 -13
-24 -127 -58 -254 -33 -126 -63 -252 -66 -280 -6 -47 -4 -53 17 -67 13 -9 38
-17 54 -19 30 -3 30 -3 48 77 55 237 108 439 125 478 33 74 126 129 160 95 19
-19 15 -42 -43 -253 -31 -110 -58 -229 -61 -265 -5 -61 -4 -67 23 -99 32 -38
56 -38 103 -2 24 19 24 20 7 55 -16 35 -16 39 19 174 19 75 46 175 59 222 45
163 46 177 19 209 -30 36 -82 61 -127 61 -26 0 -49 -11 -86 -40 l-51 -41 -39
31 c-51 41 -108 61 -140 49 -13 -6 -46 -25 -71 -44 -47 -35 -47 -35 -65 -15
-22 24 -72 56 -100 63 -11 3 -34 1 -51 -4z"/>
<path d="M3313 2160 c-29 -4 -72 -19 -96 -33 -56 -33 -131 -109 -148 -149 -11
-27 -10 -36 10 -73 33 -63 64 -89 96 -81 36 9 41 31 21 91 -17 47 -17 54 -3
82 32 60 56 68 219 68 133 0 149 -2 175 -21 42 -31 50 -65 28 -114 -24 -53
-103 -126 -151 -139 -45 -12 -64 -14 -64 -5 0 16 44 152 57 177 13 26 13 31
-2 47 -9 10 -30 24 -47 31 -29 12 -32 11 -55 -17 -21 -27 -33 -60 -77 -216
-11 -39 -22 -58 -32 -58 -8 0 -24 -5 -35 -11 -19 -10 -19 -11 2 -48 20 -36 20
-43 9 -90 -6 -28 -25 -67 -41 -87 -16 -20 -29 -40 -29 -44 0 -10 59 -60 70
-60 45 0 101 81 131 192 22 82 25 87 54 91 16 3 33 2 37 -2 4 -4 17 -51 28
-106 27 -134 27 -134 63 -156 46 -28 93 -25 113 6 16 25 16 27 -9 53 -15 15
-42 72 -63 131 l-37 105 24 15 c108 71 189 164 189 217 0 70 -66 153 -152 188
-41 17 -215 27 -285 16z"/>
<path d="M2040 2078 c-26 -43 -26 -94 -1 -108 53 -28 96 1 108 73 4 28 1 37
-18 51 -37 26 -67 20 -89 -16z"/>
<path d="M2266 2028 c-13 -46 -41 -150 -62 -233 -33 -131 -44 -158 -87 -222
-50 -76 -77 -99 -104 -89 -21 9 -12 75 32 220 47 153 46 161 -10 188 -39 19
-47 20 -59 8 -14 -15 -106 -363 -106 -401 0 -47 104 -102 168 -88 18 4 44 17
57 29 l23 21 25 -25 c17 -17 37 -26 56 -26 25 0 32 5 37 28 19 83 68 262 80
292 28 69 126 106 132 50 3 -26 -24 -60 -101 -128 -22 -19 -37 -42 -37 -55 0
-31 48 -104 98 -149 67 -60 136 -49 204 34 l26 33 21 -27 c12 -14 44 -38 73
-52 60 -30 147 -35 204 -11 70 29 194 188 178 229 -11 29 -50 19 -65 -15 -20
-50 -110 -135 -156 -149 -74 -22 -146 18 -136 75 6 27 7 27 58 22 72 -7 104
14 144 95 45 91 50 132 20 165 -35 37 -104 65 -146 57 -50 -10 -123 -97 -169
-203 -42 -98 -84 -164 -120 -187 -29 -20 -37 -14 -91 59 l-36 49 67 60 c102
92 117 134 68 186 -44 47 -73 50 -144 13 -33 -18 -61 -31 -63 -29 -1 2 11 48
26 102 31 108 30 114 -22 142 -49 25 -56 20 -83 -68z m648 -223 c12 -33 -38
-116 -85 -141 -53 -27 -62 -16 -34 44 37 80 63 112 90 112 12 0 25 -7 29 -15z"/>
<path d="M5096 2091 c-10 -11 -20 -38 -23 -62 -5 -34 -2 -45 12 -56 49 -35
100 -2 112 71 4 27 1 36 -18 50 -31 21 -62 20 -83 -3z"/>
<path d="M4762 2048 c-6 -18 -18 -59 -27 -90 -12 -44 -20 -58 -34 -58 -40 0
-61 -63 -23 -68 16 -3 21 -9 18 -20 -3 -9 -13 -48 -22 -87 -38 -160 -172 -314
-182 -210 -2 17 13 86 33 153 19 68 35 130 35 137 0 17 -31 35 -59 35 -12 0
-39 13 -61 29 -113 82 -200 31 -294 -171 -50 -108 -102 -172 -161 -199 -52
-24 -82 -24 -123 1 -29 18 -33 25 -30 58 2 25 7 36 17 34 7 -2 36 -4 63 -5 47
-2 52 0 84 38 37 44 74 132 74 175 0 59 -109 122 -174 100 -70 -23 -161 -165
-188 -292 -15 -72 0 -110 61 -152 102 -71 239 -61 316 23 18 20 18 20 58 -19
49 -50 89 -62 137 -43 19 8 45 24 57 35 l23 21 23 -20 c24 -21 70 -41 102 -44
48 -4 67 3 105 37 l41 37 22 -20 c30 -28 57 -41 107 -52 52 -12 110 8 141 48
19 23 21 24 30 8 14 -24 83 -57 122 -59 43 -1 88 23 125 69 l30 38 22 -28 c29
-37 113 -78 159 -79 42 0 73 13 111 47 15 13 50 26 85 32 33 6 68 15 79 19 16
6 17 3 12 -23 -6 -26 -3 -34 20 -52 15 -11 40 -21 55 -21 23 0 30 5 35 28 57
252 79 316 115 347 37 30 85 34 94 6 3 -10 -8 -72 -25 -137 -43 -169 -40 -188
31 -224 70 -36 133 -25 188 34 24 26 25 26 45 7 58 -53 148 -75 209 -52 34 13
87 69 104 109 13 30 12 46 -6 140 -11 59 -23 130 -27 158 -5 42 -11 54 -39 73
-20 14 -41 20 -52 17 -10 -4 -47 -54 -83 -112 -38 -62 -81 -119 -105 -137 -55
-43 -64 -57 -65 -93 0 -36 -59 -100 -84 -91 -23 9 -20 52 14 187 42 165 40
184 -22 224 -32 21 -68 16 -145 -22 l-52 -26 -32 32 c-18 18 -36 32 -40 32
-21 0 -39 -40 -64 -142 -30 -125 -59 -178 -110 -202 -32 -15 -65 -21 -65 -11
0 2 11 38 25 79 35 103 33 146 -7 191 -42 48 -102 78 -160 79 -37 1 -53 -5
-85 -30 -44 -35 -93 -111 -113 -175 -29 -93 -124 -224 -158 -217 -27 6 -20 76
23 227 42 148 41 153 -18 186 -50 27 -58 17 -97 -130 -56 -210 -163 -340 -216
-260 -16 24 -15 32 15 149 45 181 42 176 96 176 36 0 47 5 61 25 22 33 11 45
-42 45 -24 0 -44 3 -44 6 0 3 7 30 16 60 18 61 13 74 -37 100 -42 21 -56 17
-67 -18z m739 -228 c44 -24 7 -186 -55 -241 -24 -21 -36 -39 -34 -53 5 -45
-35 -62 -67 -29 -14 13 -16 28 -11 71 12 102 95 262 136 262 6 0 20 -5 31 -10z
m-1514 -16 c8 -21 -23 -87 -56 -118 -15 -14 -41 -29 -59 -32 -32 -6 -32 -6
-22 20 41 109 117 181 137 130z m424 5 c23 -12 20 -39 -18 -162 -17 -56 -34
-88 -62 -117 -45 -48 -87 -55 -97 -16 -9 36 12 123 47 197 48 101 80 125 130
98z m2008 -166 c11 -79 10 -95 -3 -121 -29 -57 -75 -53 -100 9 -23 57 -21 66
30 153 32 55 49 75 54 65 4 -8 13 -55 19 -106z"/>
</g>
</svg>
